<?xml version="1.0" encoding="utf-8" standalone="no"?>
<!DOCTYPE svg PUBLIC "-//W3C//DTD SVG 1.1//EN"
  "http://www.w3.org/Graphics/SVG/1.1/DTD/svg11.dtd">
<svg xmlns:xlink="http://www.w3.org/1999/xlink" width="432pt" height="288pt" viewBox="0 0 432 288" xmlns="http://www.w3.org/2000/svg" version="1.1">
 <metadata>
  <rdf:RDF xmlns:dc="http://purl.org/dc/elements/1.1/" xmlns:cc="http://creativecommons.org/ns#" xmlns:rdf="http://www.w3.org/1999/02/22-rdf-syntax-ns#">
   <cc:Work>
    <dc:type rdf:resource="http://purl.org/dc/dcmitype/StillImage"/>
    <dc:date>2022-08-11T15:16:24.074949</dc:date>
    <dc:format>image/svg+xml</dc:format>
    <dc:creator>
     <cc:Agent>
      <dc:title>Matplotlib v3.5.3, https://matplotlib.org/</dc:title>
     </cc:Agent>
    </dc:creator>
   </cc:Work>
  </rdf:RDF>
 </metadata>
 <defs>
  <style type="text/css">*{stroke-linejoin: round; stroke-linecap: butt}</style>
 </defs>
 <g id="figure_1">
  <g id="patch_1">
   <path d="M 0 288 
L 432 288 
L 432 0 
L 0 0 
L 0 288 
z
" style="fill: none"/>
  </g>
  <g id="axes_1">
   <g id="patch_2">
    <path d="M 112.68 58.72 
L 112.68 34.56 
L 136.84 34.56 
L 161 34.56 
L 185.16 34.56 
L 209.32 34.56 
L 209.32 58.72 
L 185.16 58.72 
L 185.16 82.88 
L 161 82.88 
L 161 107.04 
L 136.84 107.04 
L 112.68 107.04 
L 112.68 82.88 
z
" clip-path="url(#pd5cdc02a4e)"/>
   </g>
   <g id="patch_3">
    <path d="M 257.64 58.72 
L 257.64 34.56 
L 281.8 34.56 
L 305.96 34.56 
L 330.12 34.56 
L 330.12 58.72 
L 330.12 82.88 
L 330.12 107.04 
L 305.96 107.04 
L 281.8 107.04 
L 257.64 107.04 
L 257.64 82.88 
z
" clip-path="url(#pd5cdc02a4e)" style="fill: #008000"/>
   </g>
   <g id="patch_4">
    <path d="M 112.68 203.68 
L 112.68 179.52 
L 136.84 179.52 
L 136.84 155.36 
L 136.84 131.2 
L 161 131.2 
L 161 155.36 
L 161 179.52 
L 185.16 179.52 
L 185.16 203.68 
L 161 203.68 
L 161 227.84 
L 161 252 
L 136.84 252 
L 112.68 252 
L 112.68 227.84 
z
" clip-path="url(#pd5cdc02a4e)" style="fill: #800080"/>
   </g>
   <g id="patch_5">
    <path d="M 257.64 203.68 
L 233.48 203.68 
L 233.48 179.52 
L 257.64 179.52 
L 257.64 155.36 
L 281.8 155.36 
L 281.8 179.52 
L 281.8 203.68 
L 305.96 203.68 
L 330.12 203.68 
L 330.12 227.84 
L 330.12 252 
L 305.96 252 
L 281.8 252 
L 257.64 252 
L 257.64 227.84 
z
" clip-path="url(#pd5cdc02a4e)" style="fill: #0000ff"/>
   </g>
   <g id="patch_6">
    <path d="M 281.8 155.36 
L 257.64 155.36 
L 257.64 131.2 
L 281.8 131.2 
L 281.8 107.04 
L 305.96 107.04 
L 330.12 107.04 
L 330.12 131.2 
L 330.12 155.36 
L 330.12 179.52 
L 330.12 203.68 
L 305.96 203.68 
L 281.8 203.68 
L 281.8 179.52 
z
" clip-path="url(#pd5cdc02a4e)" style="fill: #ff0000"/>
   </g>
   <g id="patch_7">
    <path d="M 209.32 227.84 
L 209.32 203.68 
L 209.32 179.52 
L 209.32 155.36 
L 233.48 155.36 
L 233.48 131.2 
L 257.64 131.2 
L 257.64 155.36 
L 257.64 179.52 
L 233.48 179.52 
L 233.48 203.68 
L 257.64 203.68 
L 257.64 227.84 
L 257.64 252 
L 233.48 252 
L 209.32 252 
L 185.16 252 
L 185.16 227.84 
z
" clip-path="url(#pd5cdc02a4e)" style="fill: #ffa500"/>
   </g>
   <g id="patch_8">
    <path d="M 112.68 155.36 
L 112.68 131.2 
L 112.68 107.04 
L 136.84 107.04 
L 161 107.04 
L 161 82.88 
L 185.16 82.88 
L 209.32 82.88 
L 209.32 107.04 
L 209.32 131.2 
L 185.16 131.2 
L 185.16 155.36 
L 161 155.36 
L 161 131.2 
L 136.84 131.2 
L 136.84 155.36 
L 136.84 179.52 
L 112.68 179.52 
z
" clip-path="url(#pd5cdc02a4e)" style="fill: #ffc0cb"/>
   </g>
   <g id="patch_9">
    <path d="M 161 227.84 
L 161 203.68 
L 185.16 203.68 
L 185.16 179.52 
L 161 179.52 
L 161 155.36 
L 185.16 155.36 
L 185.16 131.2 
L 209.32 131.2 
L 209.32 107.04 
L 233.48 107.04 
L 233.48 131.2 
L 233.48 155.36 
L 209.32 155.36 
L 209.32 179.52 
L 209.32 203.68 
L 209.32 227.84 
L 185.16 227.84 
L 185.16 252 
L 161 252 
z
" clip-path="url(#pd5cdc02a4e)" style="fill: #a52a2a"/>
   </g>
   <g id="patch_10">
    <path d="M 209.32 107.04 
L 209.32 82.88 
L 185.16 82.88 
L 185.16 58.72 
L 209.32 58.72 
L 209.32 34.56 
L 233.48 34.56 
L 257.64 34.56 
L 257.64 58.72 
L 257.64 82.88 
L 257.64 107.04 
L 281.8 107.04 
L 281.8 131.2 
L 257.64 131.2 
L 233.48 131.2 
L 233.48 107.04 
z
" clip-path="url(#pd5cdc02a4e)" style="fill: #808080"/>
   </g>
  </g>
 </g>
 <defs>
  <clipPath id="pd5cdc02a4e">
   <rect x="112.68" y="34.56" width="217.44" height="217.44"/>
  </clipPath>
 </defs>
</svg>
